<svg xmlns="http://www.w3.org/2000/svg" version="1.1" xmlns:xlink="http://www.w3.org/1999/xlink" xmlns:svgjs="http://svgjs.dev/svgjs" width="100%" height="100%" viewBox="0 0 1000 600"><rect width="1000" height="600" x="0" y="0" fill="#99f443"/><g><circle r="166.66666666666666" cx="317.66395060221356" cy="339.88617810169853" fill="#ec449b" transform="matrix(0.8278292925454943,0,0,0.8278292925454943,0,18.632249261661826)"/><path d="M357.3129016038644 311.59394173175195L349.940985202049 311.59394173175195Q349.31479925286004 301.7742075285615 345.21612758544137 292.9506782445353Q341.11745591802276 284.1556119581995 333.31859455085123 278.6053274085701Q325.5481961813701 273.08350585663106 313.45142216294704 273.08350585663106L313.45142216294704 273.08350585663106Q300.75692519302544 273.08350585663106 293.98273174270855 280.2561812746137Q287.20853829239167 287.4288566925963 287.20853829239167 297.0493499119539L287.20853829239167 297.0493499119539Q287.20853829239167 305.6736382121473 292.13263689283207 311.50855273868075Q297.0567354932725 317.3434672652142 304.9409858535153 321.7552319072273Q312.82523621375805 326.1669965492404 321.64876549778427 330.26566821665904L321.64876549778427 330.26566821665904Q329.44762686495585 333.7381539348887 337.218025234437 337.7229736115457Q345.0168866016086 341.73625628589315 351.3641350865693 346.8595958701664Q357.7113835715301 351.98293545443966 361.4969622643543 359.04175888166066Q365.31100395486885 366.129045306572 365.31100395486885 375.94877950976246L365.31100395486885 375.94877950976246Q365.31100395486885 387.2201265951637 359.67533041216825 396.04365587918994Q354.0396568694676 404.8387221655257 343.36603273556494 409.8766727567278Q332.7208715993527 414.88616035023944 317.3508528465328 414.88616035023944L317.3508528465328 414.88616035023944Q308.12884159484094 414.88616035023944 298.28064439396 412.2391015650316Q288.46091019076954 409.56357978213333 280.86128980743086 404.44024019786L280.86128980743086 404.44024019786L281.88595772428556 413.26376948188624L271.24079658807324 413.26376948188624L270.01688768738575 369.6015310248017L277.98652704069974 369.6015310248017Q279.01119495755444 387.6470715605198 290.5102460244789 396.95447180528294Q301.980834093713 406.2903350477365 318.1762797795546 406.2903350477365L318.1762797795546 406.2903350477365Q326.14591913286864 406.2903350477365 332.9201125831855 403.30172029024374Q339.6943060335024 400.3415685304414 343.67912571015944 394.59204299697916Q347.6639453868164 388.87098046120735 347.6639453868164 380.67363712637007L347.6639453868164 380.67363712637007Q347.6639453868164 371.4516258746782 342.7683097840664 365.30361837355025Q337.844211183626 359.1556108724223 330.0453498164544 354.62999423964754Q322.27495144697326 350.1328406045632 313.45142216294704 346.0341689371446L313.45142216294704 346.0341689371446Q305.6525607957755 342.5616832189149 298.08140341012717 338.6622525353292Q290.5102460244789 334.76282185174335 284.24838653258934 329.7533342582317Q277.98652704069974 324.71538366702964 274.20094834787557 317.7419492328799Q270.41536965505145 310.79697779642055 270.41536965505145 300.9487805955397L270.41536965505145 300.9487805955397Q270.41536965505145 295.6262000274336 272.26546450492793 289.47819252630563Q274.11555935480436 283.3301850251777 278.7265649806503 277.6945114824771Q283.3375706064963 272.0588379397764 291.4210619505719 268.47250023078516Q299.50455329464756 264.88616252179384 312.0282722784267 264.88616252179384L312.0282722784267 264.88616252179384Q319.79867064790784 264.88616252179384 329.53301585802706 267.0208873485744Q339.26736106814633 269.18407517304536 347.6639453868164 275.33208267417325L347.6639453868164 275.33208267417325L346.866981451485 266.5085533901471L357.3129016038644 266.5085533901471L357.3129016038644 311.59394173175195Z " fill="#99f443" transform="matrix(0.8278292925454943,0,0,0.8278292925454943,0,18.632249261661826)"/><path d="M606.0083851966098 414.88615675539705L606.0083851966098 414.88615675539705Q596.2804086298867 414.88615675539705 588.6871824764165 412.2650075138077Q581.0939563229466 409.64385827221844 576.2299680395851 406.32013294525467L576.2299680395851 406.32013294525467L577.0136105963489 413.12971654196093L568.8529191431534 413.12971654196093L567.6639442294428 379.6762860152853L573.7169074265149 379.6762860152853Q574.0952176263319 387.6478223685723 578.1755633529297 393.9710071369423Q582.2559090795274 400.29419190531235 588.6871824764165 403.8070723321846Q595.1184558733058 407.292930601927 602.4955047697375 407.292930601927L602.4955047697375 407.292930601927Q607.5486481530075 407.292930601927 612.4126364363691 405.64457901701Q617.2766247197306 403.9962274320931 620.6003500466944 400.59143563374Q623.8970532165283 397.18664383538686 623.8970532165283 391.9443453522083L623.8970532165283 391.9443453522083Q623.8970532165283 386.48586961199146 620.6814165180837 382.8919227137299Q617.4928019767689 379.2979758154683 612.2234813364606 376.5687379453598Q606.981182853282 373.8395000752514 600.9552418133396 371.5155945620898L600.9552418133396 371.5155945620898Q595.1184558733058 369.1646668917984 589.2816699332719 366.65160627872825Q583.444883993238 364.1115235085283 578.4728070813574 360.59864308165606Q573.5007301694767 357.1127848119136 570.5823371994596 352.0596414286436Q567.6639442294428 346.9794758882437 567.6639442294428 339.602426991812L567.6639442294428 339.602426991812Q567.6639442294428 335.52208126521424 569.2312293429703 330.6580929818527Q570.798514456498 325.79410469849114 574.4735278261489 321.41651524346577Q578.1755633529297 317.03892578844034 584.6068367498189 314.2015992898128Q591.0110879895782 311.39129494831496 600.9552418133396 311.39129494831496L600.9552418133396 311.39129494831496Q606.1975402965182 311.39129494831496 612.6288136934073 313.1477351617511Q619.0330649331668 314.87715321805746 625.0590059731092 319.741141501419L625.0590059731092 319.741141501419L624.6806957732921 312.3640926049873L632.8413872264877 312.3640926049873L632.8413872264877 346.41201058851817L626.6262910866368 346.41201058851817Q626.2479808868197 339.602426991812 623.5187430167113 333.279242223442Q620.7895051466029 326.95605745507197 615.5472066634244 322.7676230999551Q610.2778860231159 318.5791887448382 601.928039470012 318.5791887448382L601.928039470012 318.5791887448382Q592.9566833029229 318.5791887448382 587.9035399196529 323.0648668283827Q582.8503965363827 327.5235227547975 582.8503965363827 333.36030869483136L582.8503965363827 333.36030869483136Q582.8503965363827 339.41327189190355 586.6334985345528 343.3855289899821Q590.4436226898528 347.3848082451905 596.4695637297951 350.3032012152075Q602.4955047697375 353.2215941852244 609.3050883664437 355.9508320553328L609.3050883664437 355.9508320553328Q616.7091594200051 359.0583801252582 623.7078981166197 362.760415652039Q630.7066368132345 366.4354290216899 635.1923148967791 372.001993390426Q639.6509708231938 377.5415356020322 639.6509708231938 386.296714512083L639.6509708231938 386.296714512083Q639.6509708231938 396.0246910788061 634.7059160684429 402.4289423185655Q629.7338391565622 408.8602157154547 622.0595465317028 411.88669731399074Q614.3582317497137 414.88615675539705 606.0083851966098 414.88615675539705ZM718.6637582706893 411.77860868547157L718.6637582706893 405.9418227454377Q724.6896993106317 405.9418227454377 727.0136048237933 402.91534114690165Q729.3645324940848 399.91588170549534 729.7428426939018 394.5654945937976Q730.1211528937188 389.2151074820999 730.1211528937188 382.2163687854852L730.1211528937188 382.2163687854852L730.1211528937188 354.9780343986605Q730.1211528937188 338.2242969781929 724.770765782021 329.8744504250889Q719.4203786703233 321.49758171485513 707.962984047294 321.6867368147636L707.962984047294 321.6867368147636Q700.7480680936409 321.90291407180194 693.8574180255454 325.19961724163585Q686.9397458003201 328.4963204114698 682.6702449738139 333.7656410517782L682.6702449738139 333.7656410517782L682.6702449738139 391.16070279544454Q682.6702449738139 395.0518934221338 682.4540677167755 398.0513528635401Q682.264912616867 401.07783446207617 681.6974473171415 404.3745376319101L681.6974473171415 404.3745376319101Q684.8049953870669 404.1853825320016 687.8044548284732 404.10431606061223Q690.8309364270093 403.9962274320931 693.9384844969347 403.8070723321846L693.9384844969347 403.8070723321846L693.9384844969347 411.77860868547157L654.2429356732785 411.77860868547157L654.2429356732785 405.9418227454377Q660.2958988703507 405.9418227454377 662.6198043835124 402.91534114690165Q664.9437098966739 399.91588170549534 665.4301087250101 394.5654945937976Q665.9165075533463 389.2151074820999 665.9165075533463 382.2163687854852L665.9165075533463 382.2163687854852L665.9165075533463 290.17890160143264Q665.9165075533463 287.0713535315072 666.0245961818654 284.2340270328796Q666.1326848103845 281.42372269138184 666.5109950102016 277.5325320646926L666.5109950102016 277.5325320646926Q662.9981145833293 277.7216871646011 659.5933227849762 277.9108422645096Q656.188530986623 278.12701952154794 652.7026727168807 278.3161746214564L652.7026727168807 278.3161746214564L652.7026727168807 270.1284610111311Q661.2686965270229 270.1284610111311 666.0245961818654 269.3718406114971Q670.7804958367078 268.5881980547333 673.2124899783886 267.4262452981525Q675.6444841200694 266.2372703844419 677.0226141336884 264.88616252795254L677.0226141336884 264.88616252795254L682.6702449738139 264.88616252795254L682.6702449738139 324.22681958496355Q686.9397458003201 320.5247840581828 692.2901329120177 317.714479716685Q697.6405200237155 314.87715321805746 703.3692173352302 313.1477351617511Q709.1249368038747 311.39129494831496 714.5563903869618 311.39129494831496L714.5563903869618 311.39129494831496Q731.4992829073379 311.39129494831496 738.9844204322887 321.9839805431913Q746.4695579572395 332.60368829519734 746.6587130571481 354.9780343986605L746.6587130571481 354.9780343986605L746.8748903141864 391.16070279544454Q746.8748903141864 395.0518934221338 746.7668016856672 398.0513528635401Q746.6587130571481 401.07783446207617 746.0912477574225 404.3745376319101L746.0912477574225 404.3745376319101Q749.198795827348 404.1853825320016 752.2252774258841 404.10431606061223Q755.2247368672904 403.9962274320931 758.3322849372158 403.8070723321846L758.3322849372158 403.8070723321846L758.3322849372158 411.77860868547157L718.6637582706893 411.77860868547157ZM772.7350946873919 411.77860868547157L772.7350946873919 405.9418227454377Q778.7610357273344 405.9418227454377 781.1119633976258 402.91534114690165Q783.4358689107873 399.91588170549534 783.8412012677342 394.5654945937976Q784.2195114675512 389.2151074820999 784.2195114675512 382.2163687854852L784.2195114675512 382.2163687854852L784.2195114675512 337.8459867783759Q784.2195114675512 334.7384387084505 784.3276000960703 331.63089063852505Q784.4086665674597 328.4963204114698 785.003154024315 325.19961724163585L785.003154024315 325.19961724163585Q781.4902735974428 325.3887723415444 778.0854817990896 325.4968609700635Q774.6806900007366 325.57792744145286 771.1948317309941 325.79410469849114L771.1948317309941 325.79410469849114L771.1948317309941 317.79554618807435L777.2207727709365 317.79554618807435Q785.5706193240405 317.79554618807435 788.7862560224851 316.1471946031574Q792.0018927209297 314.49884301824045 794.1366431341828 312.5532477048958L794.1366431341828 312.5532477048958L799.7842739743082 312.5532477048958Q800.1625841741252 315.6607957748212 800.3787614311635 320.22754032975513Q800.567916531072 324.82130704181884 800.7570716309805 331.8200457384335L800.7570716309805 331.8200457384335Q803.6754646009974 326.95605745507197 808.7286079842675 322.28122427161895Q813.7817513675375 317.6063910881659 820.1049361359076 314.49884301824045Q826.4281209042776 311.39129494831496 833.4538817580221 311.39129494831496L833.4538817580221 311.39129494831496Q838.8853353411091 311.39129494831496 842.9656810677069 314.3096879183319Q847.0730489514344 317.22808088834887 847.0730489514344 323.63233212810826L847.0730489514344 323.63233212810826Q847.0730489514344 325.19961724163585 846.1002512947621 327.44245628340815Q845.1274536380898 329.6852953251804 842.9656810677069 331.33364691009734Q840.8309306544538 332.98199849501435 837.3450723847113 332.98199849501435L837.3450723847113 332.98199849501435Q833.0485494010752 332.7928433951059 830.5354887880051 329.5772066966612Q827.9954060178052 326.3615699982167 828.5898934746606 322.0920691717104L828.5898934746606 322.0920691717104Q823.7259051912989 321.90291407180194 818.5646731795098 324.60512978478056Q813.4034411677205 327.334367654889 808.9177630841759 332.11728946686117Q804.4591071577613 336.8731891217036 800.9462267308891 343.30446251859274L800.9462267308891 343.30446251859274L801.1353818307975 391.16070279544454Q801.1353818307975 395.0518934221338 801.0543153594081 398.0513528635401Q800.9462267308891 401.07783446207617 800.3787614311635 404.3745376319101L800.3787614311635 404.3745376319101Q803.486309501089 404.1853825320016 806.4857689424953 404.10431606061223Q809.5122505410313 403.9962274320931 812.6197986109568 403.8070723321846L812.6197986109568 403.8070723321846L812.6197986109568 411.77860868547157L772.7350946873919 411.77860868547157ZM904.062778338154 414.88615675539705L904.062778338154 414.88615675539705Q890.6327662446502 414.88615675539705 879.8509255498653 408.56297198702697Q869.0420626979508 402.239787218657 862.8269665580999 390.67430396710836Q856.5848482611193 379.08179855842997 856.5848482611193 363.3278809517645L856.5848482611193 363.3278809517645Q856.5848482611193 349.70871375835213 862.7188779295808 337.8459867783759Q868.8529075980423 325.9832597983997 879.9319920212547 318.6872773733573Q891.038098601597 311.39129494831496 905.6300634516816 311.39129494831496L905.6300634516816 311.39129494831496Q913.7907549048771 311.39129494831496 920.897582230011 314.0124441899043Q928.0044095551448 316.6335934314936 933.4358631382319 321.9839805431913Q938.8943388784487 327.334367654889 942.0018869483741 335.4139926366951Q945.1094350182996 343.4936176185013 945.1094350182996 354.3835469418052L945.1094350182996 354.3835469418052L876.6352888514208 355.54549969838604Q876.6352888514208 370.32661964837916 879.8509255498653 381.51379270011074Q883.06656224831 392.7009657518424 890.2544560448332 398.83499542030387Q897.4423498413564 404.96902508876536 908.737611521607 404.96902508876536L908.737611521607 404.96902508876536Q914.7635525615494 404.96902508876536 921.0867373299195 402.8342746755123Q927.4099220982895 400.6995242622591 932.8683978385063 396.9974887354784Q938.2998514215934 393.29545320869767 941.6235767485571 388.8097751251531L941.6235767485571 388.8097751251531L946.2984099320101 392.7009657518424Q941.0290892917019 400.88867936216764 933.6520403952702 405.75266764552924Q926.2479693417088 410.6166559288908 918.4655880883302 412.75140634214387Q910.6832068349518 414.88615675539705 904.062778338154 414.88615675539705ZM877.2297763082761 347.3848082451905L877.2297763082761 347.3848082451905L926.842456798564 347.3848082451905Q926.842456798564 340.38606954857585 924.7887728567002 333.8467075231675Q922.7350889148364 327.334367654889 918.0872778885132 323.1459332997721Q913.4124447050601 318.984521101785 905.8192185515902 318.984521101785L905.8192185515902 318.984521101785Q894.5239568713394 318.984521101785 887.0388193463887 325.686016069972Q879.5536818214377 332.38751103815906 877.2297763082761 347.3848082451905ZM1000.3697463487129 411.77860868547157L960.6741975250566 411.77860868547157L960.6741975250566 405.9418227454377Q966.7271607221287 405.9418227454377 968.9429776067713 402.91534114690165Q971.1858166485436 399.91588170549534 971.5911490054903 394.5654945937976Q971.9694592053074 389.2151074820999 971.9694592053074 382.2163687854852L971.9694592053074 382.2163687854852L972.1586143052159 290.17890160143264Q972.1586143052159 287.0713535315072 972.266702933735 284.2340270328796Q972.3477694051244 281.42372269138184 972.7531017620711 277.5325320646926L972.7531017620711 277.5325320646926Q969.2402213351988 277.7216871646011 965.8354295368458 277.9108422645096Q962.4306377384927 278.12701952154794 958.9447794687502 278.3161746214564L958.9447794687502 278.3161746214564L958.9447794687502 270.1284610111311Q967.4837811217627 270.1284610111311 972.1586143052159 269.3718406114971Q976.833447488669 268.5881980547333 979.2654416303496 267.4262452981525Q981.6974357720305 266.2372703844419 983.0485436285197 264.88616252795254L983.0485436285197 264.88616252795254L988.6961744686452 264.88616252795254L988.6961744686452 356.92362971200515L996.4785557220237 356.92362971200515L1020.2310318391059 332.00920083834205Q1023.5277350089398 328.7124976685081 1026.2569728790481 326.06432626978903Q1028.9862107491567 323.4431770281997 1031.6884264621353 321.6867368147636L1031.6884264621353 321.6867368147636L1018.4745916256697 322.28122427161895L1018.4745916256697 314.49884301824045L1053.8736174656897 314.49884301824045L1053.8736174656897 320.3356289582743Q1047.2531889688921 320.9301164151296 1041.5244916573774 324.5240633133912Q1035.7957943458628 328.1180102116528 1031.0128725338905 332.60368829519734Q1026.2569728790481 337.0623442216121 1022.7440924521761 340.76437974839286L1022.7440924521761 340.76437974839286L1007.5846623023658 356.70745245496687Q1011.475852929055 358.46389266840293 1014.1780686420337 361.1931305385114Q1016.9073065121422 363.9223684086198 1019.6365443822506 367.2190715784538L1019.6365443822506 367.2190715784538L1033.4448666755716 384.9185844984639Q1034.4176643322435 386.10755941217445 1036.8496584739246 389.4042625820084Q1039.2816526156053 392.7009657518424 1042.6864444139583 396.59215637853157Q1046.0912362123113 400.4833470052209 1049.9013603676112 403.21258487532924Q1053.6844623657812 405.9418227454377 1056.9811655356152 405.9418227454377L1056.9811655356152 405.9418227454377L1056.9811655356152 411.77860868547157L1039.2816526156053 411.77860868547157Q1033.850199032518 411.77860868547157 1028.9862107491567 406.1309778453462Q1024.122222465795 400.4833470052209 1018.6637467255782 393.48460830860614L1018.6637467255782 393.48460830860614Q1013.6106033423082 386.48586961199146 1009.6113240870998 380.7571723004767Q1005.6390669890212 375.00145283183224 1002.4234302905766 370.731952005326Q999.207793592132 366.4354290216899 996.6677108219321 364.1115235085283L996.6677108219321 364.1115235085283L988.6961744686452 364.4898337083453L988.6961744686452 391.16070279544454Q988.6961744686452 395.0518934221338 988.6151079972558 398.0513528635401Q988.5070193687366 401.07783446207617 987.9125319118813 404.3745376319101L987.9125319118813 404.3745376319101Q991.0471021389365 404.1853825320016 994.154650208862 404.10431606061223Q997.2621982787873 403.9962274320931 1000.3697463487129 403.8070723321846L1000.3697463487129 403.8070723321846L1000.3697463487129 411.77860868547157Z " fill="#ec449b" transform="matrix(0.8278292925454943,0,0,0.8278292925454943,0,18.632249261661826)"/></g></svg>